<svg width="24" height="24" viewBox="0 0 24 24" fill="none" xmlns="http://www.w3.org/2000/svg">
<path d="M16 22V18C16.1391 16.7473 15.7799 15.4901 15 14.5C18 14.5 21 12.5 21 9C21.08 7.75 20.73 6.52 20 5.5C20.28 4.35 20.28 3.15 20 2C20 2 19 2 17 3.5C14.36 3 11.64 3 8.99998 3.5C6.99998 2 5.99998 2 5.99998 2C5.69998 3.15 5.69998 4.35 5.99998 5.5C5.27185 6.51588 4.91845 7.75279 4.99998 9C4.99998 12.5 7.99998 14.5 11 14.5C10.61 14.99 10.32 15.55 10.15 16.15C9.97998 16.75 9.92998 17.38 9.99998 18V22" stroke="white" stroke-width="2" stroke-linecap="round" stroke-linejoin="round"/>
<path d="M10 18C5.49 20 5 16 3 16" stroke="white" stroke-width="2" stroke-linecap="round" stroke-linejoin="round"/>
</svg>
