<svg width="24" height="24" viewBox="0 0 24 24" fill="none" xmlns="http://www.w3.org/2000/svg">
<path fill="white" d="M12 0.296997C5.372 0.296997 0 5.67 0 12.297C0 17.6 3.438 22.097 8.207 23.683C8.807 23.793 9.027 23.423 9.027 23.105C9.027 22.82 9.016 22.065 9.011 21.065C5.672 21.79 4.968 19.455 4.968 19.455C4.422 18.068 3.635 17.699 3.635 17.699C2.545 16.954 3.718 16.969 3.718 16.969C4.923 17.054 5.558 18.207 5.558 18.207C6.63 20.043 8.37 19.513 9.054 19.205C9.163 18.429 9.473 17.899 9.816 17.599C7.151 17.296 4.348 16.266 4.348 11.669C4.348 10.359 4.816 9.288 5.584 8.453C5.46 8.149 5.048 6.93 5.701 5.28C5.701 5.28 6.709 4.957 9.001 6.51C9.958 6.244 10.984 6.111 12.001 6.106C13.018 6.111 14.043 6.244 15.001 6.51C17.292 4.957 18.298 5.28 18.298 5.28C18.953 6.93 18.541 8.149 18.417 8.453C19.187 9.288 19.651 10.359 19.651 11.669C19.651 16.278 16.843 17.293 14.17 17.59C14.6 17.961 14.984 18.693 14.984 19.813C14.984 21.418 14.969 22.713 14.969 23.105C14.969 23.426 15.185 23.799 15.795 23.682C20.565 22.092 24 17.598 24 12.297C24 5.67 18.627 0.296997 12 0.296997Z"/>
</svg>
