<svg width="27" height="27" viewBox="0 0 27 27" fill="none" xmlns="http://www.w3.org/2000/svg">
<path d="M22.1625 19.8C22.05 19.575 21.9375 19.35 21.9375 19.125C21.9375 18.675 21.7125 18.3375 21.375 18C21.2625 17.8875 21.0375 17.775 20.925 17.775C21.6 15.75 20.5875 13.725 19.4625 12.2625C18.5625 10.9125 17.2125 9.90004 17.325 8.10004C17.325 5.96254 17.55 2.02504 13.6125 2.36254C9.5625 2.58754 10.6875 6.75004 10.575 8.21254C10.575 9.45004 10.0125 10.6875 9.1125 11.7C8.8875 11.925 8.6625 12.2625 8.55 12.4875C7.425 13.8375 6.8625 15.6375 6.8625 17.325C6.6375 17.55 6.4125 17.775 6.3 18C6.1875 18.1125 6.075 18.225 6.075 18.3375C5.9625 18.45 5.7375 18.5625 5.5125 18.675C5.0625 18.7875 4.725 19.0125 4.5 19.4625C4.3875 19.8 4.275 20.25 4.3875 20.7C4.5 20.925 4.5 21.15 4.3875 21.4875C4.1625 21.9375 4.1625 22.5 4.3875 23.0625C4.725 23.5125 5.2875 23.625 6.075 23.7375C6.6375 23.7375 7.3125 23.9625 7.875 24.1875C8.4375 24.525 9.1125 24.75 9.7875 24.75C10.125 24.75 10.575 24.6375 10.9125 24.525C11.25 24.3 11.475 24.075 11.5875 23.7375C12.0375 23.7375 12.7125 23.5125 13.5 23.5125C14.175 23.5125 14.85 23.7375 15.75 23.625C15.75 23.7375 15.75 23.85 15.8625 23.9625C16.0875 24.525 16.65 24.975 17.325 25.0875H17.55C18.45 24.975 19.35 24.525 19.9125 23.85C20.3625 23.4 20.925 23.0625 21.4875 22.8375C22.1625 22.5 22.6125 22.275 22.725 21.7125C22.8375 20.925 22.6125 20.475 22.1625 19.8ZM14.4 5.40004C15.075 5.51254 15.6375 6.07504 15.525 6.75004C15.525 7.08754 15.4125 7.42504 15.1875 7.76254H15.075C14.85 7.65004 14.7375 7.65004 14.625 7.53754C14.7375 7.42504 14.7375 7.20004 14.85 6.97504C14.85 6.52504 14.625 6.18754 14.4 6.18754C14.0625 6.18754 13.8375 6.52504 13.8375 6.97504V7.08754C13.725 6.97504 13.5 6.97504 13.3875 6.86254V6.75004C13.275 6.18754 13.725 5.51254 14.4 5.40004ZM14.0625 7.65004C14.175 7.76254 14.4 7.87504 14.5125 7.87504C14.625 7.87504 14.85 7.98754 14.9625 8.10004C15.1875 8.21254 15.4125 8.32504 15.4125 8.66254C15.4125 9.00004 15.075 9.33754 14.4 9.56254C14.175 9.67504 14.0625 9.67504 13.95 9.78754C13.6125 10.0125 13.275 10.125 12.825 10.125C12.4875 10.125 12.15 9.90004 11.925 9.67504C11.8125 9.56254 11.7 9.45004 11.475 9.33754C11.3625 9.22504 11.1375 9.00004 11.025 8.66254C11.025 8.55004 11.1375 8.43754 11.25 8.32504C11.5875 8.10004 11.7 7.98754 11.8125 7.87504L11.925 7.76254C12.15 7.42504 12.6 7.20004 13.05 7.20004C13.3875 7.31254 13.725 7.42504 14.0625 7.65004ZM11.7 5.62504C12.15 5.62504 12.4875 6.07504 12.6 6.86254V7.08754C12.4875 7.08754 12.2625 7.20004 12.15 7.31254V7.08754C12.15 6.75004 11.925 6.41254 11.7 6.52504C11.475 6.52504 11.3625 6.86254 11.3625 7.20004C11.3625 7.42504 11.475 7.53754 11.5875 7.65004C11.5875 7.65004 11.475 7.76254 11.3625 7.76254C11.1375 7.53754 10.9125 7.20004 10.9125 6.86254C10.9125 6.18754 11.25 5.62504 11.7 5.62504ZM10.575 23.7375C9.7875 24.075 8.775 23.9625 8.1 23.5125C7.425 23.175 6.8625 23.0625 6.075 23.0625C5.5125 22.95 4.95 22.95 4.8375 22.725C4.725 22.5 4.725 22.1625 4.95 21.6C5.0625 21.2625 5.0625 20.925 4.95 20.5875C4.8375 20.25 4.8375 20.025 4.95 19.6875C5.0625 19.35 5.2875 19.2375 5.625 19.125C5.9625 19.0125 6.1875 18.9 6.4125 18.675C6.525 18.5625 6.6375 18.45 6.75 18.225C7.0875 17.775 7.3125 17.55 7.65 17.55C8.325 17.6625 8.8875 18.675 9.3375 19.6875C9.5625 20.025 9.7875 20.475 10.125 20.8125C10.575 21.375 11.1375 22.1625 11.1375 22.6125C11.1375 23.175 10.9125 23.5125 10.575 23.7375ZM16.0875 21.2625C16.0875 21.375 16.0875 21.375 15.975 21.4875C14.625 22.5 12.825 22.6125 11.3625 21.825L10.6875 20.8125C11.7 20.7 11.475 19.35 9.3375 18C7.0875 16.5375 8.6625 13.8375 9.45 12.6C9.5625 12.4875 9.5625 12.6 9.1125 13.5C8.775 14.175 8.1 15.8625 9 17.1C9 16.2 9.225 15.3 9.5625 14.4C10.35 12.9375 10.9125 11.25 11.25 9.56254C11.3625 9.67504 11.3625 9.67504 11.475 9.67504C11.5875 9.78754 11.7 9.90004 11.8125 9.90004C12.0375 10.2375 12.4875 10.35 12.825 10.35H12.9375C13.3875 10.35 13.8375 10.2375 14.175 9.90004C14.2875 9.78754 14.4 9.67504 14.625 9.67504C14.9625 9.56254 15.3 9.33754 15.6375 9.00004C16.0875 10.4625 16.5375 11.8125 17.2125 13.05C17.6625 13.95 18 14.85 18.225 15.8625C18.5625 15.8625 19.0125 15.975 19.35 16.2C20.25 16.65 20.5875 16.9875 20.475 17.55H20.25C20.25 17.2125 20.025 16.875 19.2375 16.5375C18.45 16.2 17.775 16.2 17.55 16.9875C17.4375 16.9875 17.325 17.1 17.2125 17.1C16.3125 17.55 16.3125 18.7875 16.2 20.025C16.3125 20.475 16.2 20.8125 16.0875 21.2625ZM21.2625 21.9375C20.5875 22.1625 20.025 22.6125 19.575 23.175C19.125 23.85 18.3375 24.3 17.4375 24.1875C16.9875 24.1875 16.5375 23.85 16.425 23.4C16.3125 22.725 16.3125 22.05 16.65 21.375C16.7625 20.925 16.875 20.5875 16.9875 20.1375C17.1 18.7875 17.1 18 17.6625 17.6625C17.6625 18.225 18 18.5625 18.45 18.7875C19.0125 18.7875 19.575 18.675 20.025 18.225H20.25C20.5875 18.225 20.8125 18.225 21.0375 18.45C21.2625 18.675 21.375 19.0125 21.375 19.2375C21.375 19.575 21.6 19.9125 21.7125 20.25C22.275 20.8125 22.275 21.15 22.275 21.2625C22.1625 21.4875 21.7125 21.7125 21.2625 21.9375ZM11.1375 8.43754C11.025 8.43754 11.025 8.43754 11.025 8.55004C11.025 8.55004 11.025 8.66254 11.1375 8.66254C11.25 8.66254 11.25 8.77504 11.25 8.77504C11.5875 9.22504 12.15 9.45004 12.825 9.56254C13.3875 9.45004 13.95 9.33754 14.5125 8.88754L15.1875 8.55004C15.3 8.55004 15.3 8.43754 15.3 8.43754C15.3 8.32504 15.3 8.32504 15.1875 8.32504C14.9625 8.43754 14.625 8.55004 14.4 8.66254C13.95 9.00004 13.3875 9.22504 12.825 9.22504C12.2625 9.22504 11.8125 8.88754 11.475 8.55004C11.3625 8.55004 11.25 8.43754 11.1375 8.43754Z" fill="#B3B0B0"/>
</svg>
