<svg width="26" height="26" viewBox="0 0 26 26" fill="none" xmlns="http://www.w3.org/2000/svg">
<path d="M23.934 18.947C23.336 20.271 23.05 20.863 22.282 22.033C21.209 23.667 19.694 25.706 17.821 25.72C16.155 25.734 15.725 24.633 13.464 24.651C11.203 24.662 10.732 25.74 9.064 25.723C7.191 25.706 5.757 23.869 4.683 22.238C1.68 17.663 1.363 12.301 3.219 9.44798C4.532 7.42498 6.61 6.23698 8.561 6.23698C10.548 6.23698 11.797 7.32898 13.44 7.32898C15.034 7.32898 16.005 6.23398 18.303 6.23398C20.041 6.23398 21.879 7.18098 23.192 8.81498C18.896 11.169 19.594 17.305 23.934 18.947ZM16.559 4.40798C17.395 3.33498 18.029 1.82098 17.799 0.276978C16.435 0.369978 14.84 1.24098 13.908 2.36898C13.064 3.39598 12.364 4.92198 12.637 6.39798C14.125 6.44598 15.665 5.55898 16.559 4.40798Z" fill="#B3B0B0"/>
</svg>
